<?xml version="1.0" standalone="no"?>
<!DOCTYPE svg PUBLIC "-//W3C//DTD SVG 20010904//EN"
 "http://www.w3.org/TR/2001/REC-SVG-20010904/DTD/svg10.dtd">
<svg version="1.0" xmlns="http://www.w3.org/2000/svg"
 width="29.000000pt" height="27.000000pt" viewBox="0 0 29.000000 27.000000"
 preserveAspectRatio="xMidYMid meet">

<g transform="translate(0.000000,27.000000) scale(0.100000,-0.100000)"
fill="#000000" stroke="none">
<path d="M126 228 c-9 -21 -16 -42 -16 -48 0 -5 -23 -10 -52 -10 l-53 -1 38
-34 c38 -33 38 -34 27 -75 -6 -23 -9 -44 -6 -47 2 -3 21 7 42 21 l37 25 36
-25 c19 -13 39 -24 42 -24 4 0 1 21 -7 47 -8 25 -13 47 -12 48 2 1 21 15 42
31 l40 29 -53 5 c-53 5 -54 6 -71 50 l-18 45 -16 -37z"/>
</g>
</svg>
